<?xml version="1.0" encoding="UTF-8"?>
<svg version="1.1" viewBox="0 0 1984 1588" width="1280" height="1280" xmlns="http://www.w3.org/2000/svg">
<path transform="translate(0)" d="m0 0h1984v1588h-1984z" fill="#FDFDFD"/>
<path transform="translate(86,88)" d="m0 0h1474v256h-79l-1-1-1-173h-1313l-1 127v1185l1314-1 1-174h79l1 1v255h-1473l-1-1z" fill="#EE4404"/>
<path transform="translate(698,380)" d="m0 0h63l40 2 44 5 33 7 23 6 32 12 17 8 22 12 17 12 10 8 10 9 7 7 7 8 11 13 10 15 12 20 8 17 9 23 6 24 5 28 2 26v51l-2 20-5 30-9 30-8 20-13 26-11 16-9 12-14 15-18 18-17 13-14 9-23 12-12 6-29 11-20 6-30 7-39 6-18 2-17 1-34 1-151 1-1 307-18 5-19 3h-35l-12-3-14-7-9-9-5-10-3-13-1-15v-757l2-14 4-10 4-6 7-7 14-9 18-7 24-6 35-7 32-4 58-5z" fill="#EE4404"/>
<path transform="translate(1259,387)" d="m0 0h17l17 4 11 6 9 10 8 13 8 18 17 50 25 74 14 41 24 71 16 47 26 78 15 42 21 60 17 48 14 39 15 39 26 70 17 45 6 11 4 2 3-11 15-39 15-41 19-54 21-57 20-56 21-62 15-43 46-142 14-47 21-69 12-43 21-78 4-15 6-4 15-5 15-2h22l17 4 14 7 7 6 6 10 4 13v26l-5 28-9 36-12 41-9 30-14 45-16 49-16 47-15 43-17 50-20 54-17 46-21 57-11 29-11 28-8 21-9 22-6 16-11 27-14 34-15 36-12 28-8 16-8 14-8 7-14 6-16 4-11 2-13 1h-29l-14-2-17-5-13-7-11-10-12-23-13-28-13-29-13-30-14-33-28-70-16-41-15-39-11-30-17-47-19-52-17-46-10-28-19-55-9-26-12-36-16-49-14-43-18-56-19-62v-6l10-10 16-11 12-5 11-3z" fill="#EE4404"/>
<path transform="translate(726,477)" d="m0 0h23l34 2 31 4 26 6 21 7 24 11 19 11 11 8 16 15 9 12 8 13 10 21 5 15 5 25 2 25v23l-2 25-5 23-9 27-8 16-10 14-8 10-8 7-8 8-14 10-15 9-16 8-19 8-21 6-25 5-30 4-36 2h-144l-1-42v-117l1-207 5-2 32-5 39-4z" fill="#FDFDFD"/>
</svg>
